#!OML:ASF F:\VICON\USERDATA\INSTALL\rory3\rory3.ASF
:FULLY-SPECIFIED
:DEGREES
676
root -2.55159 17.8941 5.76955 189.478 245.44 176.139
lowerback 15.8824 0.35291 -1.45411
upperback 4.33151 0.119955 0.694859
thorax -4.29964 0.00195127 1.53744
lowerneck -14.5584 -0.811304 -9.27418
upperneck 36.1009 -1.94361 7.16116
head 15.183 -1.42312 4.27945
rclavicle -4.51241e-014 2.03754e-014
rhumerus -30.1975 6.37847 -86.1328
rradius 60.8973
rwrist 5.50811
rhand -17.3693 5.93102
rfingers 7.12502
rthumb 8.87899 -23.8622
lclavicle -4.51241e-014 2.03754e-014
lhumerus -7.70237 -19.3933 82.6101
lradius 49.4963
lwrist 25.1667
lhand -20.8373 37.3346
lfingers 7.12502
lthumb 5.53144 67.2424
rfemur -19.177 -4.87095 30.4133
rtibia 29.8402
rfoot -13.7177 -2.59595
rtoes 24.6823
lfemur -26.3282 -1.95852 -13.0946
ltibia 50.2653
lfoot -6.24182 -0.872722
ltoes -19.7469
677
root -2.62467 17.8828 5.81605 190.042 246.256 175.777
lowerback 15.9377 0.381806 -1.69479
upperback 4.4336 0.110664 0.652857
thorax -4.22126 -0.00570234 1.63145
lowerneck -14.7338 -0.601754 -9.2341
upperneck 36.0812 -1.58082 7.04737
head 15.1693 -1.27747 4.28291
rclavicle -4.47266e-014 -2.18663e-014
rhumerus -30.2216 6.57351 -85.8706
rradius 60.7702
rwrist 5.16617
rhand -17.2241 5.74799
rfingers 7.12502
rthumb 9.01912 -24.0392
lclavicle -4.47266e-014 -2.18663e-014
lhumerus -7.22902 -18.3851 82.2891
lradius 48.8589
lwrist 26.7818
lhand -21.1502 38.9799
lfingers 7.12502
lthumb 5.22928 68.8954
rfemur -19.1669 -4.22084 30.4218
rtibia 30.0828
rfoot -13.9606 -2.5033
rtoes 24.6298
lfemur -27.0272 -1.73565 -12.8505
ltibia 49.2713
lfoot -6.42891 -0.148262
ltoes -13.4492
678
root -2.69674 17.8702 5.86252 190.349 247.174 175.583
lowerback 16.1185 0.543475 -1.9367
upperback 4.56908 0.263634 0.484429
thorax -4.18126 0.0651877 1.56177
lowerneck -14.8407 -0.53353 -8.94635
upperneck 35.9933 -1.49794 6.89777
head 15.138 -1.21877 4.17686
rclavicle 2.29596e-014 -5.56597e-015
rhumerus -30.2042 6.49975 -85.5866
rradius 60.5596
rwrist 4.78583
rhand -17.1464 5.85269
rfingers 7.12502
rthumb 9.09411 -23.9313
lclavicle 2.29596e-014 -5.56597e-015
lhumerus -6.70203 -17.754 81.9155
lradius 48.3576
lwrist 28.452
lhand -21.8317 40.1321
lfingers 7.12502
lthumb 4.57125 70.0628
rfemur -19.0308 -3.64082 30.3314
rtibia 30.2623
rfoot -14.0549 -2.34553
rtoes 23.3787
lfemur -27.5278 -1.47906 -12.7216
ltibia 48.1014
lfoot -6.74556 0.331721
ltoes -11.7871
679
root -2.77122 17.861 5.91881 190.564 247.997 175.368
lowerback 16.3501 0.626168 -2.07266
upperback 4.753 0.32654 0.334115
thorax -4.11291 0.089298 1.4682
lowerneck -14.9768 -0.420713 -8.83838
upperneck 35.9124 -1.3184 6.82979
head 15.1084 -1.13292 4.15519
rclavicle 7.17613e-014 2.98177e-015
rhumerus -30.07 6.32206 -85.4426
rradius 60.1112
rwrist 4.48762
rhand -17.2235 6.37744
rfingers 7.12502
rthumb 9.01972 -23.4097
lclavicle 7.17613e-014 2.98177e-015
lhumerus -6.11368 -17.2914 81.3365
lradius 47.9978
lwrist 30.8481
lhand -22.0962 41.1756
lfingers 7.12502
lthumb 4.31588 71.1116
rfemur -18.7478 -3.36046 30.234
rtibia 30.3999
rfoot -14.2187 -2.04073
rtoes 21.7448
lfemur -27.8273 -1.40079 -12.617
ltibia 46.7834
lfoot -7.13032 0.890672
ltoes -13.9051
680
root -2.85149 17.8575 5.98576 191.04 248.784 174.809
lowerback 16.551 0.647134 -2.00572
upperback 4.98051 0.341729 0.21937
thorax -3.97891 0.0875075 1.30637
lowerneck -15.0669 -0.233505 -8.90017
upperneck 35.7568 -1.01155 6.87038
head 15.0191 -0.999205 4.22726
rclavicle -1.2921e-014 1.86858e-014
rhumerus -29.9778 6.15177 -85.3565
rradius 59.6323
rwrist 4.23263
rhand -17.2442 7.02429
rfingers 7.12502
rthumb 8.99966 -22.7637
lclavicle -1.2921e-014 1.86858e-014
lhumerus -5.54432 -16.8844 80.7033
lradius 47.8505
lwrist 33.677
lhand -22.7494 43.083
lfingers 7.12502
lthumb 3.68506 73.0309
rfemur -18.3614 -3.21912 30.2201
rtibia 30.5216
rfoot -14.5642 -1.53206
rtoes 21.2213
lfemur -27.9898 -1.34152 -12.3893
ltibia 45.376
lfoot -7.4733 1.30467
ltoes -14.6273
681
root -2.92945 17.8549 6.04549 191.561 249.561 174.391
lowerback 16.6281 0.675612 -2.08442
upperback 5.13872 0.350373 0.122805
thorax -3.85263 0.0850671 1.24761
lowerneck -15.1419 -0.0342317 -8.92878
upperneck 35.6692 -0.693129 6.87215
head 14.9572 -0.864585 4.28095
rclavicle 5.92378e-014 -2.38542e-014
rhumerus -30.0445 6.05044 -85.1652
rradius 59.3394
rwrist 4.16026
rhand -17.0746 6.90909
rfingers 7.12502
rthumb 9.16332 -22.8718
lclavicle 5.92378e-014 -2.38542e-014
lhumerus -5.04949 -16.2062 80.2692
lradius 47.6401
lwrist 35.5808
lhand -24.3446 44.9235
lfingers 7.12502
lthumb 2.14459 74.8925
rfemur -18.1823 -3.0698 30.1594
rtibia 30.6529
rfoot -14.9581 -0.971214
rtoes 21.7251
lfemur -28.341 -1.0987 -12.2092
ltibia 43.8759
lfoot -7.67631 1.48186
ltoes -14.8868
682
root -3.00092 17.8469 6.09848 192.102 250.279 174.065
lowerback 16.7183 0.674716 -2.31378
upperback 5.23534 0.299765 0.0639462
thorax -3.79695 0.0554725 1.32548
lowerneck -15.2816 0.166478 -8.91763
upperneck 35.6573 -0.324209 6.70987
head 14.9423 -0.727664 4.26999
rclavicle -1.78906e-014 -1.59028e-015
rhumerus -30.064 5.99128 -84.97
rradius 59.0703
rwrist 4.3759
rhand -16.9491 5.96325
rfingers 7.12502
rthumb 9.28446 -23.8123
lclavicle -1.78906e-014 -1.59028e-015
lhumerus -4.53638 -14.9522 79.947
lradius 47.0917
lwrist 35.9409
lhand -24.8187 45.9361
lfingers 7.12502
lthumb 1.68671 75.9092
rfemur -18.1624 -2.68398 30.0736
rtibia 30.8129
rfoot -15.3635 -0.681681
rtoes 23.3699
lfemur -28.8137 -0.784734 -12.0432
ltibia 42.2996
lfoot -7.84905 1.53972
ltoes -14.6794
683
root -3.07111 17.8398 6.15 192.276 250.996 174.011
lowerback 16.9843 0.72914 -2.64384
upperback 5.33934 0.294139 -0.0488616
thorax -3.82815 0.0477108 1.39447
lowerneck -15.2778 0.317913 -8.82768
upperneck 35.5038 -0.0664446 6.56443
head 14.8399 -0.620283 4.22495
rclavicle 1.74931e-014 -1.43125e-014
rhumerus -30.1493 5.94042 -84.8485
rradius 58.9208
rwrist 4.44502
rhand -16.9055 5.17679
rfingers 7.12502
rthumb 9.32656 -24.5969
lclavicle 1.74931e-014 -1.43125e-014
lhumerus -4.00653 -13.6733 79.6693
lradius 46.4601
lwrist 36.0052
lhand -25.1613 46.0602
lfingers 7.12502
lthumb 1.35575 76.0356
rfemur -18.0497 -2.20218 29.8768
rtibia 31.0239
rfoot -15.8208 -0.641114
rtoes 24.0937
lfemur -29.1059 -0.573399 -11.9532
ltibia 40.6601
lfoot -7.93784 1.61164
ltoes -14.3604
684
root -3.14007 17.833 6.20245 192.524 251.596 173.812
lowerback 17.3503 0.783991 -2.84392
upperback 5.45364 0.303835 -0.164315
thorax -3.90115 0.0472715 1.38367
lowerneck -15.2483 0.432483 -8.78091
upperneck 35.3503 0.0932245 6.56401
head 14.7421 -0.540952 4.23327
rclavicle 5.10877e-014 -1.98785e-015
rhumerus -30.3392 5.89549 -84.7426
rradius 58.8808
rwrist 4.43552
rhand -16.9311 4.95328
rfingers 7.12502
rthumb 9.30186 -24.8215
lclavicle 5.10877e-014 -1.98785e-015
lhumerus -3.44672 -12.591 79.4365
lradius 45.9174
lwrist 36.4999
lhand -25.428 46.1287
lfingers 7.12502
lthumb 1.09817 76.1056
rfemur -17.8756 -1.82663 29.7368
rtibia 31.2348
rfoot -16.3036 -0.643962
rtoes 23.7479
lfemur -29.3397 -0.439944 -11.8306
ltibia 38.9782
lfoot -7.83438 1.87108
ltoes -16.1145
685
root -3.2106 17.8195 6.25594 193.159 252.017 173.29
lowerback 17.6546 0.750455 -2.83155
upperback 5.5351 0.23465 -0.322319
thorax -3.97182 0.00991238 1.22348
lowerneck -15.3424 0.609108 -8.6112
upperneck 35.3531 0.298926 6.585
head 14.741 -0.428824 4.24562
rclavicle 1.31198e-014 -1.07344e-014
rhumerus -30.4221 5.54487 -84.8658
rradius 58.5945
rwrist 4.81344
rhand -17.0665 4.87267
rfingers 7.12502
rthumb 9.17118 -24.9079
lclavicle 1.31198e-014 -1.07344e-014
lhumerus -2.9426 -11.7567 79.0134
lradius 45.4787
lwrist 37.1506
lhand -24.3567 46.6102
lfingers 7.12502
lthumb 2.13284 76.5793
rfemur -17.7936 -1.64125 29.7511
rtibia 31.4285
rfoot -16.6931 -0.574782
rtoes 22.9101
lfemur -29.6771 -0.316507 -11.6211
ltibia 37.2432
lfoot -7.46865 2.22813
ltoes -19.4329
686
root -3.28598 17.8089 6.30865 193.862 252.487 172.743
lowerback 17.799 0.730742 -2.84179
upperback 5.68877 0.182801 -0.503053
thorax -3.882 -0.0225559 1.04886
lowerneck -15.5852 0.827847 -8.41708
upperneck 35.4013 0.597898 6.5445
head 14.7871 -0.28145 4.24822
rclavicle -1.98785e-014 2.38542e-014
rhumerus -30.2435 5.10103 -85.098
rradius 58.1224
rwrist 5.27763
rhand -17.3788 4.97344
rfingers 7.12502
rthumb 8.86986 -24.8201
lclavicle -1.98785e-014 2.38542e-014
lhumerus -2.31195 -10.992 78.4986
lradius 45.0185
lwrist 37.6467
lhand -23.3562 46.8668
lfingers 7.12502
lthumb 3.09915 76.824
rfemur -17.7388 -1.48794 29.7609
rtibia 31.6144
rfoot -17.043 -0.352886
rtoes 22.4389
lfemur -29.9958 -0.124668 -11.401
ltibia 35.444
lfoot -7.0768 2.27856
ltoes -22.2635
687
root -3.36458 17.804 6.35992 194.426 253.055 172.412
lowerback 17.7742 0.742974 -3.0385
upperback 5.88119 0.150038 -0.632416
thorax -3.66287 -0.0487322 1.03051
lowerneck -15.7024 0.990202 -8.4139
upperneck 35.2923 0.877301 6.49095
head 14.7331 -0.163675 4.26607
rclavicle 6.36111e-015 -3.73715e-014
rhumerus -30.0836 5.09283 -85.1337
rradius 57.783
rwrist 5.26003
rhand -17.5595 5.28238
rfingers 7.12502
rthumb 8.69546 -24.5185
lclavicle 6.36111e-015 -3.73715e-014
lhumerus -1.6123 -10.0001 78.1548
lradius 44.4594
lwrist 38.0248
lhand -23.1914 46.6088
lfingers 7.12502
lthumb 3.25826 76.5636
rfemur -17.7387 -1.19814 29.6421
rtibia 31.7895
rfoot -17.419 -0.0439153
rtoes 22.954
lfemur -30.2995 -0.00249295 -11.2193
ltibia 33.588
lfoot -6.81036 2.32182
ltoes -24.6592
688
root -3.44463 17.7988 6.4129 194.949 253.612 172.189
lowerback 17.7053 0.747061 -3.34971
upperback 6.01863 0.0947655 -0.710672
thorax -3.47795 -0.0849536 1.13542
lowerneck -15.7115 1.12911 -8.48517
upperneck 35.2048 1.1165 6.46803
head 14.6679 -0.0720321 4.30173
rclavicle 1.07344e-014 5.56597e-015
rhumerus -30.0551 5.33382 -85.0022
rradius 57.5413
rwrist 5.09074
rhand -17.4179 5.56289
rfingers 7.12502
rthumb 8.83211 -24.2323
lclavicle 1.07344e-014 5.56597e-015
lhumerus -1.03476 -8.93363 77.9235
lradius 43.9774
lwrist 38.6408
lhand -23.5419 46.7893
lfingers 7.12502
lthumb 2.91982 76.749
rfemur -17.7918 -0.868989 29.4749
rtibia 31.9307
rfoot -17.6583 0.158267
rtoes 22.6146
lfemur -30.6402 -0.0485892 -11.0365
ltibia 31.7135
lfoot -6.4708 2.67657
ltoes -26.3359
689
root -3.52268 17.7964 6.46723 195.6 254.213 171.784
lowerback 17.7664 0.806766 -3.64772
upperback 6.11829 0.109108 -0.772558
thorax -3.40414 -0.0855427 1.23581
lowerneck -15.7378 1.27622 -8.50397
upperneck 35.1932 1.35752 6.41584
head 14.643 0.020085 4.32002
rclavicle 4.05521e-014 2.38542e-014
rhumerus -30.1497 5.47871 -84.8118
rradius 57.3596
rwrist 5.06173
rhand -17.3757 5.83248
rfingers 7.12502
rthumb 8.87281 -23.961
lclavicle 4.05521e-014 2.38542e-014
lhumerus -0.513102 -7.90956 77.8031
lradius 43.5087
lwrist 39.2306
lhand -24.008 47.0267
lfingers 7.12502
lthumb 2.46959 76.9922
rfemur -17.7899 -0.516552 29.3363
rtibia 32.0748
rfoot -17.8459 0.381797
rtoes 21.7983
lfemur -30.8808 -0.130916 -10.778
ltibia 29.8205
lfoot -6.09224 3.0593
ltoes -27.0606
